<svg width="57" height="33" viewBox="0 0 57 33" fill="none" xmlns="http://www.w3.org/2000/svg">
<path d="M21.2422 24.1328C21.2422 24.2891 21.2344 24.4062 21.2188 24.4844C21.1406 24.5156 21.0781 24.5625 21.0312 24.625C20.9844 24.6719 20.9062 24.6875 20.7969 24.6719C20.7656 24.9062 20.6875 25.1016 20.5625 25.2578C20.4375 25.4141 20.3047 25.5547 20.1641 25.6797C20.0391 25.8203 19.9141 25.9609 19.7891 26.1016C19.6641 26.2578 19.5859 26.4531 19.5547 26.6875C19.3203 26.8125 19.0859 26.9766 18.8516 27.1797C18.6328 27.3984 18.4375 27.5469 18.2656 27.625C18.1406 27.6875 18.0078 27.7344 17.8672 27.7656C17.7266 27.8125 17.5859 27.8672 17.4453 27.9297C16.9922 28.1328 16.5234 28.3438 16.0391 28.5625C15.5703 28.7812 15.0781 28.8906 14.5625 28.8906H14.3984C14.3359 28.9531 14.2578 28.9922 14.1641 29.0078C14.0703 29.0391 13.9766 29.0625 13.8828 29.0781C13.7891 29.0938 13.6953 29.1172 13.6016 29.1484C13.5078 29.1797 13.4375 29.2266 13.3906 29.2891C13.2188 29.2266 13.0312 29.1953 12.8281 29.1953H12.6641C12.3984 29.2578 12.1484 29.3047 11.9141 29.3359C11.6797 29.3672 11.4297 29.3828 11.1641 29.3828C10.6953 29.3828 10.2266 29.3516 9.75781 29.2891C9.28906 29.2266 8.82031 29.1719 8.35156 29.125C8.05469 28.8906 7.8125 28.5938 7.625 28.2344C7.4375 27.8906 7.34375 27.5234 7.34375 27.1328C7.34375 26.8359 7.40625 26.5547 7.53125 26.2891C7.65625 26.0391 7.82031 25.8125 8.02344 25.6094H8.09375C8.23438 25.6094 8.375 25.5781 8.51562 25.5156C8.67188 25.4531 8.82031 25.4219 8.96094 25.4219C9.11719 25.4219 9.24219 25.4844 9.33594 25.6094C9.44531 25.7344 9.52344 25.8828 9.57031 26.0547C9.63281 26.2266 9.67188 26.3984 9.6875 26.5703C9.70312 26.7578 9.71094 26.9062 9.71094 27.0156C9.88281 27.0938 10.0625 27.1406 10.25 27.1562C10.4531 27.1719 10.6562 27.1797 10.8594 27.1797C11.0625 27.1797 11.2891 27.1641 11.5391 27.1328C11.7891 27.1172 12.0391 27.0781 12.2891 27.0156C12.5547 26.9688 12.8047 26.9062 13.0391 26.8281C13.2891 26.75 13.5 26.6484 13.6719 26.5234C14.5312 26.4453 15.2891 26.25 15.9453 25.9375C16.6016 25.625 17.2969 25.2578 18.0312 24.8359C18.0625 24.6641 18.125 24.5312 18.2188 24.4375C18.3281 24.3281 18.3828 24.1719 18.3828 23.9688C18.3828 23.9375 18.375 23.9062 18.3594 23.875C18.3594 23.8281 18.3594 23.7891 18.3594 23.7578C18.0469 23.3672 17.7188 23.0234 17.375 22.7266C17.0469 22.4297 16.6172 22.2344 16.0859 22.1406C16.0234 22 15.9219 21.8984 15.7812 21.8359C15.6406 21.7578 15.4922 21.6875 15.3359 21.625C15.1797 21.5625 15.0312 21.5 14.8906 21.4375C14.75 21.3594 14.6484 21.2344 14.5859 21.0625C14.1641 20.9844 13.7266 20.8906 13.2734 20.7812C12.8359 20.6562 12.4609 20.4375 12.1484 20.125C11.8984 20.1094 11.6562 20.0625 11.4219 19.9844C11.2031 19.8906 10.9844 19.8047 10.7656 19.7266C10.5469 19.6328 10.3203 19.5547 10.0859 19.4922C9.85156 19.4141 9.60938 19.375 9.35938 19.375C9.29688 19.2656 9.21094 19.1797 9.10156 19.1172C8.99219 19.0547 8.86719 19 8.72656 18.9531C8.60156 18.9062 8.47656 18.8594 8.35156 18.8125C8.24219 18.75 8.15625 18.6641 8.09375 18.5547C8.03125 18.5703 7.98438 18.6016 7.95312 18.6484C7.92188 18.6953 7.86719 18.7188 7.78906 18.7188H7.69531C7.66406 18.625 7.60156 18.5625 7.50781 18.5312C7.41406 18.4844 7.35938 18.3984 7.34375 18.2734C7.0625 18.2578 6.80469 18.2031 6.57031 18.1094C6.35156 18.0156 6.14062 17.9141 5.9375 17.8047C5.75 17.6797 5.55469 17.5625 5.35156 17.4531C5.14844 17.3438 4.92188 17.2578 4.67188 17.1953C4.51562 17.0703 4.36719 16.9375 4.22656 16.7969C4.10156 16.6406 3.9375 16.5625 3.73438 16.5625C3.6875 16.5625 3.60156 16.5781 3.47656 16.6094C3.44531 16.3281 3.32812 16.1328 3.125 16.0234C2.92188 15.8984 2.70312 15.7891 2.46875 15.6953C2.3125 15.2891 2.10156 14.9297 1.83594 14.6172C1.57031 14.3047 1.28125 14.0156 0.96875 13.75C1 13.6562 1.01562 13.5859 1.01562 13.5391C1.01562 13.3828 0.976562 13.25 0.898438 13.1406C0.820312 13.0156 0.734375 12.9141 0.640625 12.8359C0.421875 12.1328 0.3125 11.4453 0.3125 10.7734C0.3125 9.83594 0.523438 8.96875 0.945312 8.17188C1.35156 7.35938 2 6.75 2.89062 6.34375C2.90625 6.21875 2.94531 6.10938 3.00781 6.01562C3.08594 5.92188 3.13281 5.8125 3.14844 5.6875C3.28906 5.6875 3.39844 5.65625 3.47656 5.59375C3.55469 5.53125 3.625 5.46875 3.6875 5.40625C3.76562 5.32812 3.84375 5.25781 3.92188 5.19531C4 5.13281 4.10156 5.09375 4.22656 5.07812C4.82031 4.5625 5.45312 4.14844 6.125 3.83594C6.79688 3.50781 7.48438 3.17188 8.1875 2.82812C8.32812 2.76562 8.44531 2.64844 8.53906 2.47656H8.67969C8.83594 2.47656 8.95312 2.44531 9.03125 2.38281C9.125 2.30469 9.25781 2.28125 9.42969 2.3125C9.49219 2.21875 9.57031 2.15625 9.66406 2.125C9.77344 2.09375 9.875 2.07031 9.96875 2.05469C10.0781 2.02344 10.1797 1.98438 10.2734 1.9375C10.3672 1.89062 10.4297 1.82031 10.4609 1.72656H10.625C10.8906 1.72656 11.1484 1.6875 11.3984 1.60938C11.6484 1.51562 11.8984 1.41406 12.1484 1.30469H12.3125C12.625 1.30469 12.9141 1.25 13.1797 1.14062C13.4609 1.01562 13.7578 0.929688 14.0703 0.882812C14.1953 0.851563 14.3203 0.84375 14.4453 0.859375C14.5703 0.875 14.6953 0.882812 14.8203 0.882812C14.8984 0.882812 14.9922 0.875 15.1016 0.859375C15.2109 0.84375 15.2891 0.796875 15.3359 0.71875H15.3828C15.4766 0.71875 15.5312 0.75 15.5469 0.8125C15.5625 0.875 15.6094 0.90625 15.6875 0.90625C15.7969 0.90625 15.9062 0.890625 16.0156 0.859375C16.125 0.828125 16.2344 0.8125 16.3438 0.8125C16.8125 0.8125 17.2734 0.859375 17.7266 0.953125C18.1953 1.04688 18.6562 1.13281 19.1094 1.21094C19.1406 1.39844 19.2188 1.53125 19.3438 1.60938C19.4844 1.6875 19.6328 1.75781 19.7891 1.82031V1.91406C19.7891 2.03906 19.8203 2.14062 19.8828 2.21875C19.8203 2.4375 19.7109 2.60156 19.5547 2.71094C19.3984 2.82031 19.2266 2.91406 19.0391 2.99219C19.1172 3.05469 19.1641 3.14062 19.1797 3.25C19.1953 3.35938 19.2031 3.46094 19.2031 3.55469V3.83594L19.0859 3.8125C18.8359 3.8125 18.7109 3.92969 18.7109 4.16406C18.5078 4.03906 18.2812 3.96094 18.0312 3.92969C17.7969 3.89844 17.5625 3.88281 17.3281 3.88281C17.0156 3.88281 16.6875 3.89844 16.3438 3.92969C16 3.94531 15.6641 3.9375 15.3359 3.90625C15.2109 4.0625 15.0547 4.17969 14.8672 4.25781C14.6797 4.32031 14.4922 4.35156 14.3047 4.35156C14.1016 4.35156 13.9062 4.3125 13.7188 4.23438C13.5312 4.14062 13.3984 4.00781 13.3203 3.83594C13.2422 3.80469 13.1719 3.78906 13.1094 3.78906H12.8984C12.6484 3.78906 12.3984 3.82031 12.1484 3.88281C11.9141 3.92969 11.6719 3.99219 11.4219 4.07031C11.1719 4.13281 10.9219 4.20312 10.6719 4.28125C10.4375 4.34375 10.1953 4.38281 9.94531 4.39844C9.85156 4.52344 9.72656 4.60938 9.57031 4.65625C9.41406 4.70312 9.28906 4.78906 9.19531 4.91406C8.86719 4.97656 8.57031 5.08594 8.30469 5.24219C8.03906 5.38281 7.78125 5.53906 7.53125 5.71094L6.80469 6.20312C6.57031 6.35938 6.30469 6.49219 6.00781 6.60156C5.78906 6.83594 5.58594 7.02344 5.39844 7.16406C5.21094 7.30469 4.96875 7.42969 4.67188 7.53906C4.48438 7.60156 4.375 7.69531 4.34375 7.82031C4.32812 7.94531 4.26562 8.07031 4.15625 8.19531C4.0625 8.30469 3.94531 8.39062 3.80469 8.45312C3.67969 8.5 3.57031 8.58594 3.47656 8.71094C3.39844 8.82031 3.33594 8.95312 3.28906 9.10938C3.25781 9.25 3.21875 9.39062 3.17188 9.53125C3.125 9.67188 3.07031 9.8125 3.00781 9.95312C2.94531 10.0781 2.85156 10.1875 2.72656 10.2812C2.72656 10.3438 2.71875 10.4062 2.70312 10.4688C2.70312 10.5312 2.70312 10.5859 2.70312 10.6328C2.70312 10.8516 2.72656 11.0781 2.77344 11.3125C2.83594 11.5312 2.875 11.75 2.89062 11.9688C3.20312 12.5156 3.57031 13.0156 3.99219 13.4688C4.41406 13.9062 4.86719 14.3125 5.35156 14.6875C5.83594 15.0625 6.33594 15.4141 6.85156 15.7422C7.38281 16.0703 7.90625 16.3906 8.42188 16.7031C8.60938 16.6875 8.78125 16.7109 8.9375 16.7734C9.09375 16.8203 9.25781 16.8516 9.42969 16.8672C9.61719 17.0078 9.83594 17.1172 10.0859 17.1953L10.8359 17.4297C11.0859 17.5078 11.3281 17.6016 11.5625 17.7109C11.7969 17.8047 11.9922 17.9375 12.1484 18.1094C12.2266 18.125 12.2969 18.1484 12.3594 18.1797C12.4219 18.1953 12.4922 18.2031 12.5703 18.2031C12.6641 18.2031 12.7188 18.1719 12.7344 18.1094C13.4375 18.375 14.125 18.6719 14.7969 19C15.4688 19.3125 16.1797 19.5547 16.9297 19.7266C17.2266 19.9766 17.5547 20.1953 17.9141 20.3828C18.2734 20.5703 18.6328 20.7656 18.9922 20.9688C19.3516 21.1562 19.6953 21.3672 20.0234 21.6016C20.3516 21.8203 20.6406 22.0859 20.8906 22.3984C20.9219 22.6953 20.9844 22.9844 21.0781 23.2656C21.1875 23.5312 21.2422 23.8203 21.2422 24.1328ZM56.1406 14.0781C56.1094 14.2656 56.0547 14.4766 55.9766 14.7109C55.9141 14.9453 55.8203 15.1641 55.6953 15.3672C55.5859 15.5547 55.4453 15.7188 55.2734 15.8594C55.1016 15.9844 54.8984 16.0469 54.6641 16.0469C54.4922 16.0469 54.3203 16.0312 54.1484 16C53.9766 15.9531 53.7969 15.9297 53.6094 15.9297C53.5312 15.9297 53.4453 15.9609 53.3516 16.0234C53.2734 16.0703 53.1953 16.0938 53.1172 16.0938C53.0391 16.0938 52.9688 16.0859 52.9062 16.0703C52.8594 16.0391 52.7969 16.0234 52.7188 16.0234C52.6719 16.0234 52.5859 16.0391 52.4609 16.0703C52.3359 16.1016 52.2031 16.1328 52.0625 16.1641C51.9219 16.1953 51.7891 16.2344 51.6641 16.2812C51.5391 16.3125 51.4531 16.3359 51.4062 16.3516C50.9844 16.4922 50.5625 16.6172 50.1406 16.7266C49.7188 16.8359 49.2812 16.9062 48.8281 16.9375C48.7344 16.9062 48.5938 16.875 48.4062 16.8438C48.2188 16.7969 48.0781 16.7734 47.9844 16.7734C47.7969 16.7734 47.6719 16.8516 47.6094 17.0078C47.5625 17.1641 47.4609 17.2812 47.3047 17.3594C47.1172 17.4688 46.8828 17.5312 46.6016 17.5469C46.3203 17.5625 46.0391 17.5859 45.7578 17.6172C45.4766 17.6484 45.2109 17.7109 44.9609 17.8047C44.7266 17.8828 44.5547 18.0391 44.4453 18.2734C44.3672 18.2578 44.2812 18.25 44.1875 18.25C44.1094 18.2344 44.0234 18.2266 43.9297 18.2266C43.4297 18.2266 42.9609 18.3281 42.5234 18.5312C42.0859 18.7188 41.6406 18.8906 41.1875 19.0469C41.2656 19.1875 41.3203 19.3594 41.3516 19.5625C41.3828 19.7656 41.4141 19.9688 41.4453 20.1719C41.4766 20.3594 41.5156 20.5469 41.5625 20.7344C41.625 20.9062 41.7266 21.0391 41.8672 21.1328C41.8672 21.2266 41.8438 21.3047 41.7969 21.3672C41.7656 21.4297 41.7266 21.4844 41.6797 21.5312L41.5156 21.6953C41.4688 21.7422 41.4375 21.8125 41.4219 21.9062C41.375 22.0938 41.3516 22.2891 41.3516 22.4922C41.3516 22.6797 41.2422 22.8203 41.0234 22.9141C41.0391 22.9609 41.0469 23.0469 41.0469 23.1719C41.0469 23.3281 41.0234 23.4766 40.9766 23.6172C40.9297 23.7578 40.9141 23.9141 40.9297 24.0859C40.6641 24.3828 40.4375 24.6875 40.25 25C40.0781 25.3125 39.9453 25.6484 39.8516 26.0078C39.2734 26.5859 38.6797 27.1641 38.0703 27.7422C37.4766 28.3359 36.8594 28.9062 36.2188 29.4531C35.5938 30 34.9453 30.5156 34.2734 31C33.6016 31.5 32.9062 31.9375 32.1875 32.3125H32.0234C31.6641 32.3125 31.3828 32.375 31.1797 32.5C30.9766 32.625 30.7188 32.7344 30.4062 32.8281C30.1719 32.7656 29.8906 32.7344 29.5625 32.7344C29.375 32.7344 29.1797 32.7422 28.9766 32.7578C28.7891 32.7734 28.5938 32.7812 28.3906 32.7812C28.125 32.7812 27.8828 32.75 27.6641 32.6875C27.4609 32.625 27.2578 32.5547 27.0547 32.4766C26.8672 32.3984 26.6719 32.3203 26.4688 32.2422C26.2656 32.1641 26.0469 32.1094 25.8125 32.0781C24.8438 31.1094 24.0781 29.9766 23.5156 28.6797C22.9531 27.3984 22.6719 26.0781 22.6719 24.7188C22.6719 24.0938 22.7578 23.4844 22.9297 22.8906C23.1016 22.2812 23.1875 21.6719 23.1875 21.0625C23.4688 20.5 23.7109 19.9219 23.9141 19.3281C24.1328 18.7344 24.3516 18.1406 24.5703 17.5469C24.7891 16.9531 25.0234 16.375 25.2734 15.8125C25.5391 15.2344 25.8516 14.6875 26.2109 14.1719C26.2891 13.7656 26.4141 13.4141 26.5859 13.1172C26.7578 12.8203 26.9453 12.4922 27.1484 12.1328C27.1484 11.7891 27.2188 11.4766 27.3594 11.1953C27.5156 10.8984 27.6094 10.5703 27.6406 10.2109C27.8906 9.97656 28.0938 9.71094 28.25 9.41406C28.4062 9.11719 28.5547 8.8125 28.6953 8.5C28.8359 8.1875 28.9922 7.89062 29.1641 7.60938C29.3516 7.3125 29.6016 7.0625 29.9141 6.85938C29.9453 6.75 29.9609 6.63281 29.9609 6.50781C29.9766 6.36719 30.0156 6.25781 30.0781 6.17969L30.5703 5.64062C30.7266 5.4375 30.8672 5.23438 30.9922 5.03125C31.1328 4.8125 31.2812 4.61719 31.4375 4.44531C31.5312 4.35156 31.6328 4.27344 31.7422 4.21094C31.8516 4.14844 31.9453 4.07812 32.0234 4C32.1016 3.92188 32.125 3.82031 32.0938 3.69531C32.0781 3.57031 32.1094 3.46875 32.1875 3.39062C32.2188 3.35938 32.2656 3.32812 32.3281 3.29688C32.3906 3.26562 32.4453 3.23438 32.4922 3.20312C32.6953 3.0625 32.8672 2.92188 33.0078 2.78125C33.1484 2.64062 33.3438 2.53906 33.5938 2.47656C33.8125 2.30469 34.0078 2.13281 34.1797 1.96094C34.3672 1.78906 34.5547 1.63281 34.7422 1.49219C34.9297 1.35156 35.1328 1.24219 35.3516 1.16406C35.5703 1.07031 35.8438 1.02344 36.1719 1.02344C36.2344 1.02344 36.2969 1.03125 36.3594 1.04688C36.4219 1.04688 36.4844 1.04688 36.5469 1.04688C37.1875 1.64062 37.5859 2.36719 37.7422 3.22656C37.5703 3.44531 37.4297 3.67969 37.3203 3.92969C37.2266 4.17969 37.1172 4.42969 36.9922 4.67969C36.7266 4.77344 36.4766 4.91406 36.2422 5.10156C36.0078 5.27344 35.7734 5.45312 35.5391 5.64062C35.3203 5.82812 35.0859 5.99219 34.8359 6.13281C34.6016 6.27344 34.3359 6.34375 34.0391 6.34375C33.9141 6.45312 33.7109 6.63281 33.4297 6.88281C33.1641 7.11719 32.8828 7.36719 32.5859 7.63281C32.3047 7.89844 32.0391 8.14844 31.7891 8.38281C31.5547 8.61719 31.4062 8.78125 31.3438 8.875C31.2969 8.95312 31.2578 9.02344 31.2266 9.08594C31.1953 9.14844 31.1641 9.21875 31.1328 9.29688L30.5234 10.3281C30.1797 10.9219 29.8281 11.5078 29.4688 12.0859C29.1094 12.6484 28.7969 13.2422 28.5312 13.8672C28.4062 14.1484 28.3047 14.4297 28.2266 14.7109C28.1484 14.9922 28.0703 15.2891 27.9922 15.6016C27.9609 15.6953 27.9219 15.7891 27.875 15.8828C27.8281 15.9766 27.7891 16.0625 27.7578 16.1406C27.5859 16.4688 27.4453 16.7734 27.3359 17.0547C27.2266 17.3359 27.1641 17.6641 27.1484 18.0391C26.7578 18.9141 26.3906 19.7969 26.0469 20.6875C25.7188 21.5625 25.4688 22.4688 25.2969 23.4062C25.3906 23.7188 25.4297 24.0391 25.4141 24.3672C25.4141 24.6797 25.4141 24.9922 25.4141 25.3047C25.4141 25.6953 25.4375 26.0156 25.4844 26.2656C25.5469 26.5312 25.625 26.7656 25.7188 26.9688C25.8281 27.1875 25.9453 27.4062 26.0703 27.625C26.1953 27.8594 26.3281 28.1328 26.4688 28.4453C26.7031 28.6328 26.9141 28.8281 27.1016 29.0312C27.2891 29.25 27.4688 29.4844 27.6406 29.7344C28.2344 30.0312 28.8359 30.1797 29.4453 30.1797C29.8828 30.1797 30.3281 30.1094 30.7812 29.9688C31.2344 29.8281 31.6719 29.6484 32.0938 29.4297C32.5312 29.2266 32.9531 29 33.3594 28.75C33.7656 28.5 34.1562 28.2578 34.5312 28.0234C35.1875 27.6328 35.7578 27.2109 36.2422 26.7578C36.7266 26.3047 37.1641 25.8281 37.5547 25.3281C37.9609 24.8281 38.3359 24.2969 38.6797 23.7344C39.0234 23.1562 39.3828 22.5469 39.7578 21.9062C39.7734 21.8281 39.8047 21.7344 39.8516 21.625L39.9922 21.2734C40.0391 21.1484 40.0781 21.0391 40.1094 20.9453C40.1562 20.8359 40.1797 20.7656 40.1797 20.7344C40.1797 20.6094 40.1484 20.5234 40.0859 20.4766C40.0391 20.4141 40.0156 20.3516 40.0156 20.2891C40.0156 20.1641 40.0469 20.0781 40.1094 20.0312C40.1719 19.9844 40.2422 19.9375 40.3203 19.8906C40.4141 19.8438 40.4922 19.7891 40.5547 19.7266C40.6328 19.6641 40.6719 19.5469 40.6719 19.375C40.6406 19.3594 40.5859 19.3516 40.5078 19.3516C40.4297 19.3516 40.3516 19.3594 40.2734 19.375C40.1953 19.3906 40.1172 19.3984 40.0391 19.3984C39.8516 19.3984 39.6953 19.3359 39.5703 19.2109C39.4922 19.2422 39.4141 19.2969 39.3359 19.375C39.2578 19.4375 39.1797 19.5078 39.1016 19.5859C39.0391 19.6641 38.9766 19.7344 38.9141 19.7969C38.8516 19.8594 38.7969 19.8906 38.75 19.8906C38.6719 19.8906 38.6094 19.875 38.5625 19.8438C38.5312 19.8125 38.4844 19.7969 38.4219 19.7969C38.1562 19.7969 37.9219 19.8594 37.7188 19.9844C37.5156 20.1094 37.2969 20.2109 37.0625 20.2891C37.0156 20.2891 36.9688 20.2891 36.9219 20.2891C36.875 20.2734 36.8281 20.2656 36.7812 20.2656C36.6094 20.2656 36.4375 20.2969 36.2656 20.3594C36.1094 20.4062 35.9531 20.4609 35.7969 20.5234C35.6562 20.5859 35.5078 20.6406 35.3516 20.6875C35.1953 20.7344 35.0391 20.75 34.8828 20.7344C34.5391 20.8594 34.2188 20.9922 33.9219 21.1328C33.6406 21.2734 33.3125 21.3281 32.9375 21.2969C32.8281 21.3438 32.7109 21.3984 32.5859 21.4609C32.4766 21.5078 32.3672 21.5703 32.2578 21.6484C32.1641 21.6797 32.0938 21.6953 32.0469 21.6953C31.9688 21.6953 31.9062 21.6562 31.8594 21.5781C31.7344 21.7188 31.5703 21.8203 31.3672 21.8828C31.1641 21.9297 30.9531 21.9766 30.7344 22.0234C30.5156 22.0547 30.3047 22.1016 30.1016 22.1641C29.9141 22.2109 29.7656 22.3125 29.6562 22.4688C29.4844 22.3281 29.2812 22.2578 29.0469 22.2578C28.8125 22.2578 28.5859 22.3047 28.3672 22.3984C28.1484 22.4766 27.9141 22.5156 27.6641 22.5156C27.5703 22.5156 27.5078 22.5 27.4766 22.4688C27.4141 22.2969 27.3438 22.125 27.2656 21.9531C27.1875 21.7812 27.0625 21.6562 26.8906 21.5781C26.8594 21.4062 26.8281 21.2422 26.7969 21.0859C26.7812 20.9141 26.7734 20.75 26.7734 20.5938C26.7734 20.1719 26.8984 19.7891 27.1484 19.4453C27.3672 19.3672 27.5859 19.3047 27.8047 19.2578C28.0391 19.1953 28.2656 19.125 28.4844 19.0469C28.6562 19.0781 28.8281 19.1016 29 19.1172C29.1719 19.1328 29.3438 19.1406 29.5156 19.1406C30.1562 19.1406 30.7812 19.0625 31.3906 18.9062C32 18.7344 32.6016 18.5547 33.1953 18.3672C33.7578 18.1953 34.3281 18.0391 34.9062 17.8984C35.4844 17.7578 36.0625 17.6016 36.6406 17.4297C37.1875 17.2891 37.7266 17.1328 38.2578 16.9609C38.7891 16.7734 39.3438 16.6562 39.9219 16.6094C40.2969 16.3438 40.75 16.1641 41.2812 16.0703C41.8281 15.9766 42.3281 15.875 42.7812 15.7656C43.5 15.5938 44.2109 15.4219 44.9141 15.25C45.6172 15.0625 46.3359 14.8984 47.0703 14.7578C47.8828 14.5859 48.6719 14.375 49.4375 14.125C50.2188 13.875 51 13.6094 51.7812 13.3281H52.0156C52.2812 13.3281 52.5547 13.2969 52.8359 13.2344C53.1172 13.1719 53.3984 13.1406 53.6797 13.1406C53.7578 13.1406 53.8203 13.1484 53.8672 13.1641C53.9297 13.1641 53.9922 13.1641 54.0547 13.1641C54.1016 13.1641 54.2188 13.1328 54.4062 13.0703C54.5938 12.9922 54.7266 12.9375 54.8047 12.9062C55.0078 13.125 55.2344 13.3203 55.4844 13.4922C55.7344 13.6641 55.9531 13.8594 56.1406 14.0781Z" fill="#4EA3D9"/>
</svg>